:SAMPLES-PER-SECOND 30
:FULLY-SPECIFIED
:DEGREES
166
root  -3.08353 40.9197 -0.308431 -177.179 -79.5426 -178.691
RightUpLeg  -2.12867 0.436532 -1.11957
RightLeg  -0.536467 -11.9528 -0.655448
RightFoot  -0.215314 -0.304801 3.1132
RightToes  -3.10096e-008 1.75238e-005 3.56266e-009
Spine  -1.57318 -2.40133 -12.0766
Spine1  3.09231 -4.57179 12.9624
HEad  0.585352 16.2865 10.5274
LeftShoulder1  0.852538 -0.364065 -15.2165
LeftArm  -97.7482 -36.0176 8.34724
LeftForeArm  133.237 -56.3425 -162.087
LeftHand  0.197066 -9.06768 -1.21269
RightShoulder  2.49747 5.17556 22.5684
RightArm  0.542684 -43.0515 39.3597
RightForeArm  70.5709 79.312 79.7088
RightHand  -0.588538 7.87747 -5.50508
LeftUpLeg  0.245322 1.19609 2.51928
LeftLeg  -2.76798 22.0232 -1.52781
LeftFoot  -0.328928 0.291317 -3.00214
LeftToes  4.7633e-008 1.48299e-008 1.30754e-009
167
root  -2.81642 40.9367 -0.301622 -177.216 -79.7824 -177.979
RightUpLeg  -3.05086 0.587314 -1.019
RightLeg  -1.01902 -12.3796 -0.36184
RightFoot  0.504172 -0.28973 2.83826
RightToes  -3.10096e-008 1.75238e-005 3.56266e-009
Spine  0.0319478 -2.35766 -11.6092
Spine1  2.67549 -4.48879 12.0866
HEad  -1.64255 17.3556 10.2
LeftShoulder1  0.998888 -0.977865 -15.4715
LeftArm  -96.6202 -35.2372 5.9024
LeftForeArm  128.944 -61.2584 -158.204
LeftHand  0.35019 -7.11114 -2.86944
RightShoulder  2.60649 5.3698 23.2064
RightArm  0.518302 -42.4156 39.6738
RightForeArm  61.6442 78.8692 70.9515
RightHand  -0.556273 7.784 -5.26246
LeftUpLeg  -0.86571 1.11266 2.69146
LeftLeg  -3.01337 21.9321 -1.59186
LeftFoot  0.378352 0.276102 -2.7083
LeftToes  4.7633e-008 1.48299e-008 1.30754e-009
168
root  -2.50403 40.9486 -0.319071 -177.308 -80.1661 -177.11
RightUpLeg  -4.17394 0.671092 -0.938187
RightLeg  -1.41578 -12.9072 0.0721762
RightFoot  1.22088 -0.271276 2.54699
RightToes  -3.10096e-008 1.75238e-005 3.56266e-009
Spine  1.0019 -2.25621 -11.8446
Spine1  3.73464 -4.58772 12.0058
HEad  -5.00972 18.3934 9.34033
LeftShoulder1  1.12594 -1.34934 -16.4677
LeftArm  -95.913 -35.6883 3.54237
LeftForeArm  119.871 -68.0345 -149.699
LeftHand  0.369568 -7.18355 -3.04887
RightShoulder  2.69618 5.52797 23.708
RightArm  -0.0225107 -40.8114 40.1568
RightForeArm  52.2863 78.0029 60.6907
RightHand  -0.550824 8.41286 -4.99766
LeftUpLeg  -2.29475 1.16076 2.99086
LeftLeg  -3.02295 21.533 -1.66688
LeftFoot  1.2014 0.250534 -2.32817
LeftToes  4.7633e-008 1.48299e-008 1.30754e-009
169
root  -2.21628 40.9614 -0.341326 -177.621 -80.8834 -175.944
RightUpLeg  -5.13083 0.64002 -0.860816
RightLeg  -2.16554 -13.7527 0.668986
RightFoot  2.0221 -0.254558 2.30497
RightToes  -3.10096e-008 1.75238e-005 3.56266e-009
Spine  1.057 -2.28602 -11.5499
Spine1  5.59256 -4.66271 11.1894
HEad  -7.90516 18.4516 8.86725
LeftShoulder1  1.3915 -2.3722 -16.9904
LeftArm  -94.3053 -36.4349 1.42554
LeftForeArm  95.2397 -75.6913 -126.905
LeftHand  0.343948 -6.68058 -2.94264
RightShoulder  2.85728 5.89632 24.2851
RightArm  -0.408526 -39.2396 40.7351
RightForeArm  43.7177 76.7307 51.68
RightHand  -0.608656 8.24254 -5.54677
LeftUpLeg  -3.72773 1.19586 3.32254
LeftLeg  -3.18881 20.7976 -1.79763
LeftFoot  1.92458 0.240883 -2.20859
LeftToes  4.7633e-008 1.48299e-008 1.30754e-009
170
root  -1.95384 40.9736 -0.356887 -178.215 -82.0385 -174.662
RightUpLeg  -5.65779 0.489614 -0.867222
RightLeg  -3.26479 -14.8726 1.37522
RightFoot  2.83955 -0.236864 2.05629
RightToes  -3.10096e-008 1.75238e-005 3.56266e-009
Spine  1.46238 -2.36716 -11.485
Spine1  6.61183 -4.81654 10.8429
HEad  -9.15951 18.0049 8.34416
LeftShoulder1  1.68051 -3.54779 -17.1745
LeftArm  -92.617 -37.5303 -0.583285
LeftForeArm  37.8093 -77.7741 -72.1973
LeftHand  0.262764 -4.98034 -2.64846
RightShoulder  2.9849 6.27195 24.4249
RightArm  -0.370681 -38.2516 41.2508
RightForeArm  36.7666 75.1216 44.0314
RightHand  -0.675049 8.01411 -6.198
LeftUpLeg  -4.8949 1.0421 3.49257
LeftLeg  -3.57116 19.8866 -1.83303
LeftFoot  2.7069 0.22784 -2.00796
LeftToes  4.7633e-008 1.48299e-008 1.30754e-009
171
root  -1.74182 40.9852 -0.390509 -179.751 -83.4447 -173.009
RightUpLeg  -5.5146 0.249174 -0.875213
RightLeg  -4.18942 -16.0094 2.01838
RightFoot  3.41048 -0.224243 1.91212
RightToes  -3.10096e-008 1.75238e-005 3.56266e-009
Spine  2.18432 -2.52608 -11.4265
Spine1  7.4783 -5.08981 10.5599
HEad  -9.82179 17.3373 8.38295
LeftShoulder1  1.65316 -3.58795 -16.6037
LeftArm  -91.5457 -40.0343 -2.75166
LeftForeArm  -1.94836 -67.7637 -30.4258
LeftHand  0.195545 -4.30199 -2.06826
RightShoulder  3.02803 6.26774 24.9033
RightArm  0.193497 -36.9049 41.3027
RightForeArm  31.0544 73.0517 37.1005
RightHand  -0.738424 8.01865 -6.74447
LeftUpLeg  -5.45737 0.8681 3.60627
LeftLeg  -3.83348 18.675 -1.71457
LeftFoot  3.40282 0.216652 -1.82557
LeftToes  4.7633e-008 1.48299e-008 1.30754e-009
172
root  -1.59406 40.9819 -0.432224 179.58 -84.8573 -172.139
RightUpLeg  -5.61535 0.0561077 -0.949906
RightLeg  -4.66043 -17.3363 2.40788
RightFoot  3.59808 -0.190434 1.63891
RightToes  -3.10096e-008 1.75238e-005 3.56266e-009
Spine  2.40134 -2.66469 -11.8343
Spine1  7.8671 -5.42365 11.0838
HEad  -9.50257 16.5342 8.09752
LeftShoulder1  1.64288 -3.69676 -16.0661
LeftArm  -91.3841 -42.5488 -3.45844
LeftForeArm  -13.3858 -50.5667 -14.5656
LeftHand  0.0572733 -3.07009 -0.632276
RightShoulder  2.96259 6.16965 24.5225
RightArm  0.759439 -36.1326 41.6704
RightForeArm  26.4066 70.8305 31.837
RightHand  -0.656269 7.57625 -6.22478
LeftUpLeg  -6.08116 0.771648 3.6124
LeftLeg  -3.93564 17.3934 -1.72907
LeftFoot  3.81887 0.208736 -1.6892
LeftToes  4.7633e-008 1.48299e-008 1.30754e-009
173
root  -1.51826 40.978 -0.458901 179.204 -85.9368 -171.874
RightUpLeg  -5.69175 -0.134652 -1.04865
RightLeg  -4.25339 -18.2095 2.39768
RightFoot  3.42106 -0.194332 1.68115
RightToes  -3.10096e-008 1.75238e-005 3.56266e-009
Spine  2.34063 -2.73145 -11.8334
Spine1  8.29271 -5.54776 11.1251
HEad  -9.2273 15.6003 7.69456
LeftShoulder1  1.54141 -3.61578 -14.7811
LeftArm  -88.5491 -44.0627 -3.14936
LeftForeArm  -27.8372 -32.3587 -8.27052
LeftHand  0.0174522 0.303475 -0.155756
RightShoulder  2.89836 5.97628 24.4687
RightArm  1.16662 -35.7721 41.7462
RightForeArm  23.8962 68.8799 28.2363
RightHand  -0.60415 7.80103 -5.67003
LeftUpLeg  -6.24531 0.628087 3.52627
LeftLeg  -3.93722 16.4795 -1.65154
LeftFoot  4.03698 0.209526 -1.68908
LeftToes  4.7633e-008 1.48299e-008 1.30754e-009
174
root  -1.53722 40.9739 -0.485253 179.864 -86.4882 -172.906
RightUpLeg  -5.53346 -0.344062 -1.17557
RightLeg  -3.51816 -18.5274 2.19315
RightFoot  2.9566 -0.202409 1.78639
RightToes  -3.10096e-008 1.75238e-005 3.56266e-009
Spine  2.4427 -2.86652 -12.4635
Spine1  8.14475 -5.84686 11.7988
HEad  -9.20172 15.2004 7.30253
LeftShoulder1  1.41352 -3.45626 -13.3344
LeftArm  -77.9511 -43.9356 -4.96637
LeftForeArm  -47.5371 -20.7874 -4.10649
LeftHand  -0.115774 2.61451 4.04771
RightShoulder  2.94728 6.13993 24.4555
RightArm  2.02718 -35.4906 41.3103
RightForeArm  21.4371 66.9286 25.3723
RightHand  -0.63503 7.95433 -5.8802
LeftUpLeg  -5.93618 0.605156 3.40711
LeftLeg  -3.82908 15.9748 -1.63714
LeftFoot  3.99921 0.208067 -1.66063
LeftToes  4.7633e-008 1.48299e-008 1.30754e-009
175
root  -1.65983 40.9733 -0.479969 173.139 -87.4351 -166.955
RightUpLeg  -4.32319 -0.46062 -1.02928
RightLeg  -3.5971 -19.3338 2.2944
RightFoot  2.59687 -0.210857 1.89287
RightToes  -3.10096e-008 1.75238e-005 3.56266e-009
Spine  2.60399 -3.29047 -12.1496
Spine1  7.98904 -6.26808 11.6676
HEad  -10.1081 15.031 7.14874
LeftShoulder1  1.48354 -3.90814 -12.9728
LeftArm  -65.9539 -44.2144 -9.17905
LeftForeArm  -51.0358 -16.5288 1.81068
LeftHand  -0.12787 2.40875 4.5464
RightShoulder  2.84148 5.84292 24.287
RightArm  2.60292 -35.5265 41.2319
RightForeArm  19.8585 65.5249 23.643
RightHand  -0.607629 8.0069 -5.62326
LeftUpLeg  -5.38479 0.827662 3.54314
LeftLeg  -3.05094 14.6864 -1.35624
LeftFoot  3.41314 0.220709 -1.86382
LeftToes  4.7633e-008 1.48299e-008 1.30754e-009
176
root  -1.84639 40.9693 -0.472815 168.284 -88.0665 -162.86
RightUpLeg  -3.17863 -0.439446 -0.933104
RightLeg  -3.44178 -19.9958 2.02625
RightFoot  2.0515 -0.220641 2.02434
RightToes  -3.10096e-008 1.75238e-005 3.56266e-009
Spine  1.69639 -3.76776 -11.4517
Spine1  8.60678 -6.5339 10.8045
HEad  -11.1009 15.0134 6.87236
LeftShoulder1  1.76281 -4.46814 -15.2982
LeftArm  -66.6625 -43.5643 -8.76436
LeftForeArm  -43.151 -17.1227 0.201717
LeftHand  -0.0866052 2.56419 3.08655
RightShoulder  2.75071 5.6776 23.8242
RightArm  2.20699 -36.0157 42.0621
RightForeArm  18.7805 64.7367 22.7964
RightHand  -0.588338 8.06911 -5.43484
LeftUpLeg  -4.60788 0.954019 3.50078
LeftLeg  -2.45146 13.8598 -1.17349
LeftFoot  2.77072 0.223839 -1.94721
LeftToes  4.7633e-008 1.48299e-008 1.30754e-009
177
root  -2.08206 40.9574 -0.469536 165.208 -88.8206 -160.789
RightUpLeg  -1.78099 -0.861694 -1.11036
RightLeg  -3.00891 -20.3 1.88748
RightFoot  1.22697 -0.224557 2.07778
RightToes  -3.10096e-008 1.75238e-005 3.56266e-009
Spine  1.19421 -4.11909 -10.9027
Spine1  8.45185 -6.59891 9.86757
HEad  -11.7545 14.5588 6.31781
LeftShoulder1  1.95356 -4.75678 -16.987
LeftArm  -69.8295 -41.7008 -7.85737
LeftForeArm  -34.74 -23.0314 -5.50337
LeftHand  -0.0922472 2.09898 2.93857
RightShoulder  2.67194 5.3995 23.8788
RightArm  1.85664 -37.0224 42.2946
RightForeArm  18.1276 64.5754 22.6916
RightHand  -0.633026 8.02215 -5.83391
LeftUpLeg  -3.44474 0.979006 3.29123
LeftLeg  -1.92655 13.0755 -0.997401
LeftFoot  1.97793 0.24052 -2.18363
LeftToes  4.7633e-008 1.48299e-008 1.30754e-009
178
root  -2.36325 40.9485 -0.48723 162.531 -89.3024 -159.021
RightUpLeg  -0.409915 -1.00876 -1.1572
RightLeg  -2.67037 -20.5663 1.58119
RightFoot  0.549208 -0.2426 2.37217
RightToes  -3.10096e-008 1.75238e-005 3.56266e-009
Spine  0.368665 -4.34848 -10.8734
Spine1  8.11666 -6.65155 9.61985
HEad  -11.8493 13.7409 5.61012
LeftShoulder1  1.94831 -4.57091 -17.4951
LeftArm  -64.7548 -39.7393 -7.99901
LeftForeArm  -36.3723 -33.0334 -9.14595
LeftHand  -0.0927199 1.19134 2.37309
RightShoulder  2.68656 5.44884 23.8767
RightArm  1.4014 -37.9314 42.2992
RightForeArm  17.5698 64.2575 22.3866
RightHand  -0.68527 8.10898 -6.25524
LeftUpLeg  -2.19181 1.02072 3.14564
LeftLeg  -1.60708 12.4973 -0.845384
LeftFoot  1.32028 0.258532 -2.41951
LeftToes  4.7633e-008 1.48299e-008 1.30754e-009
179
root  -2.65658 40.9471 -0.513892 156.827 -89.4952 -154.042
RightUpLeg  1.04162 -0.912708 -1.00382
RightLeg  -2.99113 -20.818 1.40648
RightFoot  0.190946 -0.24446 2.46918
RightToes  -3.10096e-008 1.75238e-005 3.56266e-009
Spine  -0.333209 -4.32359 -10.8708
Spine1  7.09039 -6.46313 9.72917
HEad  -11.6721 13.1405 5.04699
LeftShoulder1  1.87336 -4.37788 -17.1045
LeftArm  -60.6343 -38.0428 -7.63181
LeftForeArm  -35.519 -44.5414 -12.9704
LeftHand  -0.112145 -0.26056 2.41168
RightShoulder  2.65525 5.41 23.6426
RightArm  1.01003 -39.0215 42.1979
RightForeArm  16.8226 63.9111 22.0811
RightHand  -0.680215 7.39063 -6.51865
LeftUpLeg  -0.958624 1.10786 3.1194
LeftLeg  -1.55101 12.1603 -0.708107
LeftFoot  0.75849 0.26646 -2.52282
LeftToes  4.7633e-008 1.48299e-008 1.30754e-009
